<?xml version="1.0" encoding="utf-8"?>
<!-- Generator: Adobe Illustrator 14.0.0, SVG Export Plug-In . SVG Version: 6.00 Build 43363)  -->
<!DOCTYPE svg PUBLIC "-//W3C//DTD SVG 1.1//EN" "http://www.w3.org/Graphics/SVG/1.1/DTD/svg11.dtd">
<svg version="1.1" id="Layer_1" xmlns="http://www.w3.org/2000/svg" xmlns:xlink="http://www.w3.org/1999/xlink" x="0px" y="0px"
	 width="266.667px" height="310px" viewBox="0 0 266.667 310" enable-background="new 0 0 266.667 310" xml:space="preserve">
<g>
	<g>
		<path fill="#EDEDED" d="M201.469,63.214c-1.784,0-3.554-0.219-5.288-0.666c-0.568-0.146-0.91-0.725-0.764-1.293
			c0.146-0.568,0.727-0.91,1.293-0.764c8.542,2.201,18.128-1.75,25.651-10.567c1.47-1.722,2.986-4.049,4.453-6.3
			c3.044-4.669,5.449-8.368,7.896-7.795c1.562,0.358,2.479,2.238,2.971,6.096c0.418,3.28-1.039,14.448-2.64,18.381
			c-0.222,0.543-0.844,0.803-1.384,0.583c-0.543-0.221-0.804-0.841-0.583-1.384c1.478-3.628,2.883-14.307,2.499-17.312
			c-0.509-3.996-1.33-4.293-1.338-4.294c-1.029-0.249-4.021,4.398-5.642,6.885c-1.504,2.307-3.059,4.693-4.617,6.52
			C217.411,58.998,209.3,63.214,201.469,63.214L201.469,63.214z"/>
		<path fill="#EDEDED" d="M236.439,113.228c-0.45,0-0.866-0.291-1.005-0.743c-3.832-12.434-3.296-25.509-2.777-38.155
			c0.194-4.76,0.396-9.682,0.349-14.415c-0.006-0.581,0.46-1.057,1.041-1.062c0.004,0,0.008,0,0.011,0
			c0.576,0,1.046,0.464,1.052,1.041c0.049,4.787-0.154,9.736-0.351,14.522c-0.511,12.468-1.039,25.361,2.686,37.45
			c0.172,0.555-0.14,1.144-0.695,1.315C236.646,113.213,236.542,113.228,236.439,113.228L236.439,113.228z"/>
		<path fill="#EDEDED" d="M242.615,118.807c-2.503,0-4.884-2.062-7.085-6.141c-0.271-0.502-0.084-1.129,0.418-1.4
			c0.501-0.271,1.129-0.084,1.4,0.418c1.312,2.43,3.334,5.277,5.541,5.04c2.482-0.269,5.243-4.472,7.033-10.71
			c0.129-0.451,0.305-1.706,0.508-3.16c1.115-7.968,2.058-12.153,4.114-12.913c0.768-0.283,1.567-0.5,2.244-0.162
			c0.629,0.315,0.806,0.908,0.934,1.34c0.199,0.668,0.424,1.425,2.622,1.945c5.73,1.357,10.35-4.493,12.063-8.753
			c0.941-2.337,1.178-5.007,1.406-7.59c0.448-5.065,0.912-10.302,7.304-10.854c1.391-0.118,2.635,0.208,3.637,0.471
			c1.197,0.313,1.896,0.473,2.353,0.103c0.443-0.36,1.094-0.292,1.453,0.15c0.36,0.443,0.293,1.094-0.15,1.454
			c-1.292,1.05-2.762,0.664-4.18,0.293c-0.937-0.246-1.906-0.501-2.935-0.411c-4.446,0.384-4.938,3.5-5.423,8.977
			c-0.242,2.733-0.492,5.559-1.547,8.179c-1.981,4.922-7.473,11.647-14.456,9.993c-3.347-0.792-3.856-2.452-4.124-3.354
			c-0.114,0.03-0.271,0.079-0.484,0.157c-1.295,0.617-2.416,8.628-2.784,11.26c-0.231,1.657-0.398,2.854-0.568,3.444
			c-1.001,3.489-3.862,11.661-8.797,12.194C242.946,118.798,242.78,118.807,242.615,118.807L242.615,118.807z"/>
		<path fill="#EDEDED" d="M216.718,116.771c-0.468,0-0.902-0.299-1.052-0.769c-0.186-0.581,0.135-1.202,0.716-1.388
			c6.133-1.956,12.725-2.71,19.1-3.44l0.832-0.095c0.61-0.069,1.153,0.365,1.223,0.971c0.07,0.606-0.365,1.153-0.971,1.223
			l-0.833,0.095c-6.27,0.718-12.752,1.46-18.679,3.35C216.941,116.754,216.829,116.771,216.718,116.771L216.718,116.771z"/>
		<path fill="#EDEDED" d="M235.688,142.407c-0.08,0-0.16-0.005-0.241-0.016c-0.356-0.048-0.709-0.073-0.985-0.073
			c-0.006,0-0.012,0-0.018,0c-0.981,0-1.781-0.791-1.791-1.773c-0.01-0.989,0.784-1.799,1.773-1.809
			c0.588-0.015,1.19,0.063,1.499,0.104c0.98,0.133,1.668,1.035,1.536,2.015C237.339,141.754,236.57,142.407,235.688,142.407
			L235.688,142.407z"/>
		<path fill="#EDEDED" d="M235.687,141.615c-0.335,0-0.663-0.168-0.852-0.475c-0.289-0.47-0.144-1.085,0.327-1.375
			c24.181-14.892,42.822-35.56,52.491-58.197c0.218-0.508,0.808-0.741,1.312-0.526c0.507,0.217,0.743,0.804,0.526,1.312
			c-9.83,23.013-28.753,44.006-53.282,59.113C236.046,141.567,235.865,141.615,235.687,141.615L235.687,141.615z"/>
		<path fill="#EDEDED" d="M238.657,144.963c-0.217,0-0.437-0.046-0.646-0.142c-1.846-0.848-3.11-2.062-3.756-3.606
			c-0.331-0.79,0.042-1.699,0.832-2.03c0.789-0.332,1.699,0.042,2.029,0.833c0.337,0.804,1.073,1.472,2.189,1.984
			c0.778,0.358,1.12,1.279,0.762,2.057C239.807,144.627,239.244,144.963,238.657,144.963L238.657,144.963z"/>
		<path fill="#EDEDED" d="M255.299,145.026c-5.783,0-11.401-0.217-16.699-0.496c-0.618-0.033-1.094-0.56-1.061-1.179
			c0.032-0.618,0.57-1.091,1.178-1.061c14.894,0.783,32.328,1.082,48.721-2.636c0.609-0.136,1.205,0.241,1.342,0.845
			s-0.242,1.205-0.846,1.341C277.141,144.29,265.94,145.026,255.299,145.026L255.299,145.026z"/>
		<path fill="#EDEDED" d="M277.384,174.794c-0.135,0-0.272-0.017-0.409-0.051c-1.02-0.258-2.099-0.343-3.242-0.432
			c-0.659-0.052-1.32-0.104-1.978-0.188c-0.912-0.116-1.557-0.95-1.44-1.862c0.115-0.912,0.94-1.565,1.862-1.44
			c0.604,0.076,1.21,0.123,1.816,0.171c1.231,0.097,2.505,0.196,3.798,0.523c0.892,0.226,1.432,1.131,1.206,2.022
			C278.806,174.292,278.128,174.794,277.384,174.794L277.384,174.794z"/>
		<path fill="#EDEDED" d="M277.385,174.915c-0.558,0-1.106-0.26-1.455-0.747c-0.573-0.803-0.388-1.918,0.414-2.492
			c1.713-1.224,3.666-1.392,5.39-1.539c0.365-0.031,0.729-0.062,1.084-0.104c0.992-0.121,1.868,0.586,1.982,1.564
			c0.115,0.979-0.585,1.867-1.564,1.982c-0.393,0.047-0.794,0.081-1.197,0.115c-1.389,0.119-2.701,0.231-3.616,0.887
			C278.106,174.807,277.744,174.915,277.385,174.915L277.385,174.915z"/>
		<path fill="#EDEDED" d="M287.758,180.688c-0.181,0-0.364-0.048-0.531-0.146c-1.014-0.601-2.161-1.099-3.377-1.626
			c-2.83-1.228-5.756-2.497-7.368-5.262c-0.29-0.498-0.122-1.137,0.376-1.427c0.497-0.291,1.136-0.123,1.427,0.376
			c1.268,2.173,3.759,3.254,6.396,4.398c1.221,0.529,2.483,1.077,3.61,1.745c0.495,0.294,0.659,0.934,0.365,1.43
			C288.462,180.505,288.114,180.688,287.758,180.688L287.758,180.688z"/>
		<path fill="#EDEDED" d="M190.788,222.579c-0.25,0-0.5-0.089-0.7-0.27c-0.426-0.387-0.459-1.046-0.072-1.473
			c19.439-21.45,45.596-34.122,75.283-47.32c0.528-0.234,1.143,0.005,1.376,0.528c0.234,0.526-0.003,1.143-0.528,1.376
			c-29.468,13.102-55.42,25.667-74.586,46.816C191.354,222.464,191.071,222.579,190.788,222.579L190.788,222.579z"/>
		<path fill="#EDEDED" d="M286.767,238.146c-33.247,0-65.654-5.23-96.335-15.55c-0.584-0.196-0.899-0.83-0.702-1.415
			c0.195-0.584,0.83-0.9,1.415-0.702c30.448,10.24,62.62,15.433,95.622,15.433c0.085,0,0.167,0,0.252,0h0.001
			c0.616,0,1.116,0.5,1.117,1.116c0,0.617-0.499,1.117-1.116,1.118C286.938,238.146,286.85,238.146,286.767,238.146L286.767,238.146
			z"/>
		<path fill="#EDEDED" d="M253.869,348.335c-1.831,0-3.793-1.376-6.004-2.928c-2.338-1.64-4.987-3.499-7.847-3.991
			c-1.509-0.259-2.479-0.876-2.886-1.834c-0.764-1.802,0.722-3.981,2.294-6.288c0.699-1.025,1.423-2.087,1.783-2.929
			c1.492-3.486,1.84-6.936,1.24-12.301c-2.07-18.523-11.08-36.696-20.754-53.657c-7.793,21.723-31.716,28.019-52.9,33.595
			c-5.355,1.41-10.413,2.741-15.095,4.275c-0.519,0.169-1.079-0.113-1.249-0.633s0.113-1.079,0.633-1.25
			c4.737-1.552,9.822-2.891,15.206-4.308c21.36-5.623,45.57-11.996,52.208-34.386l0.655-2.213l1.152,2
			c10.19,17.694,19.923,36.768,22.112,56.355c0.642,5.74,0.252,9.469-1.389,13.301c-0.436,1.02-1.18,2.11-1.967,3.266
			c-1.034,1.516-2.449,3.592-2.107,4.398c0.121,0.285,0.631,0.523,1.398,0.656c3.298,0.567,6.141,2.562,8.648,4.321
			c2.138,1.5,4.159,2.909,5.349,2.486c0.813-0.293,1.517-1.508,2.092-3.608c2.991-10.94-1.149-32.141-4.308-40.936
			c-2.911-8.104-7.996-15.979-12.482-22.927c-3.519-5.449-6.557-10.154-7.822-13.872l-0.579-1.702l1.748,0.42
			c16.287,3.91,35.616,2.37,54.427-4.333c0.512-0.183,1.081,0.084,1.265,0.601c0.184,0.515-0.085,1.081-0.601,1.265
			c-18.465,6.582-37.453,8.272-53.709,4.811c1.444,3.233,4.022,7.226,6.936,11.737c4.544,7.037,9.694,15.013,12.682,23.331
			c3.234,9.007,7.456,30.786,4.354,42.127c-0.775,2.838-1.834,4.411-3.33,4.95C254.644,348.272,254.259,348.335,253.869,348.335
			L253.869,348.335z"/>
		<path fill="#EDEDED" d="M42.562,175.082c-1.656,0-4.41-2.622-4.809-3.073c-1.648-1.867-1.072-3.036-0.583-3.567
			c0.941-1.021,2.36-1.754,3.732-2.463c2.57-1.329,4.103-2.255,3.73-3.91c-1.073-4.762-8.211-9.96-13.487-13.457
			c-1.152-0.763-2.709-1.701-4.513-2.786c-7.297-4.392-17.291-10.406-18.333-15.507c-0.247-1.207-0.014-2.313,0.691-3.289
			c3.225-4.46,11.963,0.877,18.985,5.166c1.992,1.217,3.712,2.268,4.924,2.845c9.439,4.495,14.514,6.598,23.491,7.867
			c0.554,0.078,0.939,0.591,0.861,1.145c-0.078,0.554-0.592,0.941-1.145,0.861c-9.256-1.308-14.445-3.456-24.079-8.043
			c-1.307-0.623-3.069-1.699-5.109-2.945c-5.298-3.235-14.164-8.65-16.288-5.708c-0.369,0.51-0.479,1.049-0.347,1.696
			c0.864,4.229,11.21,10.456,17.392,14.177c1.823,1.097,3.398,2.045,4.587,2.833c6.038,4,13.125,9.287,14.345,14.7
			c0.744,3.3-2.317,4.883-4.776,6.155c-1.217,0.629-2.475,1.28-3.173,2.037c0.023,0.71,2.849,2.923,3.853,3.245
			c0.354-0.043,0.719,0.105,0.942,0.417c0.326,0.455,0.221,1.087-0.234,1.413C43.034,175.023,42.81,175.082,42.562,175.082
			L42.562,175.082z"/>
		<path fill="#EDEDED" d="M90.369,150.329c-8.342,0-15.688-5.604-17.799-13.456c-6.029,4.057-11.023,6.534-16.052,7.975
			c-0.518,0.147-1.058-0.15-1.206-0.669c-0.148-0.518,0.151-1.058,0.669-1.206c5.142-1.473,10.284-4.1,16.67-8.516l1.245-0.861
			l0.269,1.49c1.422,7.867,8.654,13.587,16.805,13.283c0.551-0.019,0.99,0.401,1.01,0.939c0.019,0.538-0.401,0.99-0.939,1.01
			C90.816,150.325,90.591,150.329,90.369,150.329L90.369,150.329z"/>
		<path fill="#EDEDED" d="M120.938,158.594c-0.937,0-1.818-0.117-2.648-0.35c-3.856-1.081-7.047-5.728-9.862-9.828
			c-1.741-2.535-3.714-5.409-4.802-5.543c-0.669-0.055-2.872,1.7-4.336,2.878c-2.682,2.159-5.721,4.606-8.279,4.606
			c-0.002,0-0.005,0-0.007,0c-0.561-0.001-1.015-0.457-1.014-1.018c0.001-0.56,0.456-1.014,1.016-1.014c0.001,0,0.003,0,0.006,0
			c1.842,0,4.705-2.305,7.005-4.157c2.428-1.955,4.34-3.505,5.858-3.312c1.996,0.246,3.863,2.966,6.227,6.409
			c2.49,3.626,5.589,8.14,8.736,9.021c1.997,0.559,4.435,0.267,7.458-0.895c0.523-0.199,1.111,0.061,1.312,0.584
			c0.201,0.524-0.061,1.111-0.584,1.312C124.756,158.161,122.743,158.594,120.938,158.594L120.938,158.594z"/>
		<path fill="#EDEDED" d="M126.661,157.284c-0.05,0-0.101-0.004-0.152-0.012c-0.514-0.083-0.863-0.567-0.78-1.082
			c1.58-9.752-4.048-18.449-9.491-26.859c-2.649-4.094-5.39-8.328-7.196-12.575c-0.204-0.479,0.02-1.033,0.499-1.237
			c0.479-0.204,1.033,0.019,1.237,0.499c1.743,4.098,4.318,8.076,7.044,12.289c5.637,8.709,11.465,17.716,9.769,28.186
			C127.516,156.955,127.116,157.284,126.661,157.284L126.661,157.284z"/>
		<path fill="#EDEDED" d="M109.911,117.428c-0.325,0-0.646-0.152-0.848-0.437c-1.85-2.594-5.009-5.905-8.667-9.74
			c-4.007-4.2-8.549-8.96-12.367-13.861l-0.186-0.237c-1.555-1.979-3.18-4.233-2.786-5.925c0.148-0.637,0.552-1.128,1.167-1.423
			c3.987-1.907,9.693-0.804,15.211,0.263c4.11,0.795,8.361,1.615,11.619,1.123c6.565-0.996,11.32-4.719,15.418-12.072
			c0.28-0.502,0.912-0.684,1.416-0.402c0.502,0.28,0.682,0.914,0.402,1.416c-2.757,4.946-7.511,11.688-16.924,13.116
			c-3.615,0.55-8.043-0.308-12.327-1.137c-5.187-1.004-10.551-2.042-13.917-0.429c-0.124,0.238-0.065,1.1,2.357,4.185l0.19,0.243
			c3.754,4.819,8.258,9.539,12.231,13.704c3.713,3.892,6.92,7.253,8.856,9.968c0.334,0.468,0.225,1.118-0.243,1.452
			C110.331,117.365,110.12,117.428,109.911,117.428L109.911,117.428z"/>
		<path fill="#EDEDED" d="M129.38,76.647c-0.541,0-0.992-0.424-1.019-0.97c-0.067-1.316,0.313-3.152,0.753-5.278
			c0.219-1.057,0.445-2.149,0.617-3.199c0.474-2.894-0.204-6.904-0.801-10.442c-0.87-5.155-1.558-9.227,0.709-10.697
			c2.283-1.484,4.396-0.371,5.939,0.442c0.99,0.521,1.844,0.973,2.457,0.724c0.501-0.204,1.281-1.004,2.146-3.66
			c1.899-5.831,0.677-20.556,0.257-24.93c-0.066-0.696-0.214-1.708-0.384-2.879c-1.064-7.314-1.262-10.753,0.382-11.794
			c0.467-0.295,1.252-0.496,2.336,0.224c4.523,3.005,7.865,9.642,11.097,16.06c3.54,7.029,7.2,14.298,12.03,15.808
			c4.505,1.408,6.846,0.119,11.979-2.702l2.424-1.325l0.377,1.176c3.175,9.912,6.773,21.147,16.33,27.463
			c0.471,0.311,0.6,0.945,0.289,1.416c-0.311,0.471-0.943,0.601-1.416,0.289c-9.75-6.444-13.713-17.857-16.771-27.365l-0.249,0.137
			c-5.312,2.919-8.239,4.527-13.572,2.862c-5.656-1.768-9.342-9.088-13.245-16.839c-3.112-6.181-6.33-12.571-10.403-15.277
			c-0.063-0.042-0.115-0.072-0.158-0.094c-0.626,1.292,0.222,7.12,0.593,9.667c0.174,1.198,0.325,2.233,0.396,2.979
			c0.55,5.734,1.617,19.722-0.349,25.758c-0.927,2.847-1.952,4.364-3.321,4.92c-1.49,0.606-2.918-0.146-4.177-0.81
			c-1.608-0.846-2.656-1.326-3.875-0.536c-1.141,0.74-0.401,5.122,0.193,8.643c0.624,3.695,1.331,7.883,0.803,11.113
			c-0.179,1.092-0.41,2.206-0.632,3.283c-0.395,1.906-0.768,3.707-0.714,4.761c0.029,0.563-0.405,1.043-0.968,1.072
			C129.415,76.647,129.397,76.647,129.38,76.647L129.38,76.647z"/>
		<path fill="#EDEDED" d="M160.167,109.471c-0.263,0-0.525-0.1-0.727-0.299l-3.394-3.367c-9.439-9.353-19.199-19.024-27.476-29.542
			c-0.352-0.447-0.274-1.094,0.173-1.446c0.447-0.35,1.093-0.274,1.446,0.173c8.197,10.417,17.912,20.043,27.306,29.352l3.397,3.37
			c0.403,0.401,0.404,1.053,0.004,1.457C160.696,109.37,160.432,109.471,160.167,109.471L160.167,109.471z"/>
		<path fill="#EDEDED" d="M162.789,110.177c-0.154,0-0.312-0.026-0.466-0.082c-0.323-0.116-0.723-0.142-1.187-0.171
			c-0.373-0.024-0.796-0.051-1.23-0.135c-0.744-0.144-1.23-0.864-1.087-1.608c0.145-0.745,0.872-1.229,1.608-1.087
			c0.263,0.051,0.564,0.07,0.884,0.09c0.588,0.038,1.253,0.08,1.943,0.329c0.713,0.257,1.083,1.044,0.825,1.757
			C163.879,109.829,163.351,110.177,162.789,110.177L162.789,110.177z"/>
		<path fill="#EDEDED" d="M162.789,109.842c-0.41,0-0.798-0.245-0.962-0.648c-0.215-0.531,0.041-1.136,0.572-1.352l3.224-1.301
			c12.659-5.102,25.75-10.377,36.798-18.654c0.459-0.344,1.11-0.25,1.452,0.208c0.344,0.458,0.251,1.109-0.208,1.453
			c-11.265,8.44-24.483,13.767-37.267,18.918l-3.22,1.3C163.051,109.817,162.919,109.842,162.789,109.842L162.789,109.842z"/>
		<path fill="#EDEDED" d="M203.219,89.02c-0.456,0-0.882-0.287-1.038-0.743l-0.6-1.752c-2.766-8.062-5.625-16.4-6.229-24.927
			c-0.043-0.604,0.412-1.129,1.017-1.172c0.597-0.027,1.128,0.413,1.171,1.017c0.585,8.242,3.397,16.441,6.116,24.371l0.602,1.755
			c0.195,0.573-0.11,1.197-0.684,1.393C203.456,89.001,203.336,89.02,203.219,89.02L203.219,89.02z"/>
		<path fill="#EDEDED" d="M203.045,90.763c-0.146,0-0.295-0.016-0.444-0.049c-1.103-0.244-1.799-1.336-1.555-2.439l0.176-0.794
			c0.243-1.104,1.332-1.8,2.439-1.555c1.103,0.244,1.799,1.336,1.555,2.439l-0.176,0.794
			C204.829,90.113,203.983,90.763,203.045,90.763L203.045,90.763z"/>
		<path fill="#EDEDED" d="M216.538,116.606c-0.329,0-0.651-0.159-0.849-0.452c-4.005-5.978-6.999-12.623-9.895-19.05
			c-1.183-2.624-2.404-5.337-3.67-7.942c-0.245-0.506-0.034-1.117,0.473-1.363c0.508-0.246,1.117-0.034,1.363,0.472
			c1.277,2.631,2.506,5.357,3.693,7.995c2.861,6.35,5.819,12.916,9.73,18.752c0.313,0.468,0.188,1.102-0.28,1.415
			C216.931,116.55,216.733,116.606,216.538,116.606L216.538,116.606z"/>
		<path fill="#EDEDED" d="M216.717,117.852c-0.301,0-0.605-0.062-0.897-0.194l-0.154-0.068c-1.106-0.482-1.613-1.77-1.131-2.876
			c0.48-1.106,1.767-1.615,2.875-1.13l0.207,0.091c1.1,0.496,1.589,1.79,1.094,2.89C218.345,117.373,217.55,117.852,216.717,117.852
			L216.717,117.852z"/>
		<path fill="#EDEDED" d="M203.22,88.939c-0.372,0-0.729-0.205-0.908-0.56c-0.253-0.501-0.051-1.112,0.45-1.365
			c8.618-4.34,15.408-11.724,21.975-18.864c2.784-3.028,5.663-6.159,8.62-8.98c0.405-0.387,1.048-0.373,1.437,0.033
			c0.388,0.406,0.372,1.049-0.034,1.437c-2.908,2.776-5.765,5.882-8.527,8.887c-6.689,7.274-13.606,14.796-22.556,19.304
			C203.529,88.904,203.373,88.939,203.22,88.939L203.22,88.939z"/>
		<path fill="#EDEDED" d="M109.909,117.489c-0.583,0-1.07-0.458-1.1-1.047c-0.031-0.608,0.438-1.126,1.045-1.157l0.86-0.043
			c16.591-0.838,33.747-1.705,49.043-7.825c0.561-0.226,1.206,0.049,1.433,0.614c0.227,0.565-0.049,1.207-0.614,1.433
			c-15.637,6.257-32.979,7.133-49.751,7.98l-0.86,0.043C109.946,117.489,109.928,117.489,109.909,117.489L109.909,117.489z"/>
		<path fill="#EDEDED" d="M184.173,126.282c-0.24,0-0.482-0.082-0.682-0.248c-2.578-2.16-5.539-4.092-8.403-5.96
			c-4.688-3.059-9.537-6.221-13.121-10.597c-0.372-0.454-0.305-1.124,0.149-1.496c0.453-0.373,1.123-0.306,1.495,0.149
			c3.375,4.122,8.084,7.194,12.638,10.164c2.916,1.902,5.932,3.869,8.607,6.111c0.449,0.377,0.509,1.047,0.132,1.497
			C184.778,126.153,184.477,126.282,184.173,126.282L184.173,126.282z"/>
		<path fill="#EDEDED" d="M187.138,126.836c-0.057,0-0.113-0.003-0.17-0.009c-0.559-0.061-1.147-0.055-1.772-0.047
			c-0.351,0.004-0.702,0.007-1.053,0c-0.862-0.018-1.547-0.73-1.529-1.592c0.018-0.861,0.758-1.533,1.592-1.529
			c0.319,0.006,0.638,0.002,0.956,0c0.688-0.009,1.4-0.015,2.143,0.065c0.857,0.093,1.477,0.863,1.384,1.72
			C188.601,126.243,187.924,126.836,187.138,126.836L187.138,126.836z"/>
		<path fill="#EDEDED" d="M187.137,126.32c-0.381,0-0.748-0.209-0.933-0.572c-0.261-0.515-0.056-1.143,0.459-1.404
			c9.284-4.71,19.731-7.482,29.639-9.775c0.562-0.131,1.124,0.22,1.253,0.782c0.13,0.562-0.22,1.124-0.782,1.253
			c-9.778,2.264-20.079,4.995-29.164,9.604C187.457,126.284,187.296,126.32,187.137,126.32L187.137,126.32z"/>
		<path fill="#EDEDED" d="M129.986,159.091c-0.294,0-0.59-0.093-0.841-0.286c-0.444-0.34-1.035-0.523-1.719-0.736
			c-0.423-0.131-0.861-0.267-1.304-0.454c-0.704-0.298-1.033-1.109-0.736-1.813c0.298-0.704,1.11-1.032,1.813-0.736
			c0.338,0.143,0.692,0.25,1.046,0.36c0.819,0.254,1.748,0.542,2.583,1.183c0.606,0.465,0.721,1.333,0.256,1.939
			C130.812,158.905,130.401,159.091,129.986,159.091L129.986,159.091z"/>
		<path fill="#EDEDED" d="M129.987,159.578c-0.764,0-1.481-0.472-1.757-1.232c-0.353-0.97,0.148-2.042,1.119-2.395
			c0.829-0.301,1.642-0.396,2.36-0.48c0.333-0.039,0.666-0.076,0.992-0.14c1.016-0.2,1.996,0.46,2.195,1.473
			s-0.46,1.996-1.473,2.195c-0.422,0.083-0.851,0.135-1.28,0.185c-0.565,0.066-1.099,0.128-1.519,0.281
			C130.414,159.542,130.199,159.578,129.987,159.578L129.987,159.578z"/>
		<path fill="#EDEDED" d="M133.062,158.152c-0.27,0-0.539-0.11-0.734-0.326c-0.365-0.405-0.333-1.029,0.072-1.395
			c11.593-10.452,25.593-18.038,39.132-25.373c4.015-2.176,8.167-4.425,12.151-6.697c0.474-0.269,1.077-0.105,1.347,0.369
			c0.271,0.474,0.105,1.077-0.368,1.347c-4.004,2.282-8.165,4.537-12.189,6.717c-13.438,7.28-27.332,14.809-38.75,25.104
			C133.534,158.068,133.298,158.152,133.062,158.152L133.062,158.152z"/>
		<path fill="#EDEDED" d="M230.006,143.776c-0.662,0-1.215-0.518-1.25-1.187c-0.037-0.691,0.494-1.281,1.185-1.317
			c1.729-0.092,2.863-0.567,3.469-1.453c0.39-0.573,1.172-0.718,1.741-0.327c0.571,0.391,0.718,1.17,0.327,1.741
			c-1.062,1.552-2.88,2.407-5.404,2.541C230.051,143.776,230.028,143.776,230.006,143.776L230.006,143.776z"/>
		<path fill="#EDEDED" d="M234.444,141.568c-0.308,0-0.611-0.135-0.817-0.395c-0.932-1.176-1.872-2.349-2.812-3.521
			c-5.39-6.719-10.962-13.667-15.021-21.507c-0.264-0.51-0.064-1.139,0.446-1.403c0.509-0.265,1.139-0.065,1.403,0.446
			c3.964,7.656,9.471,14.521,14.796,21.162c0.943,1.176,1.887,2.352,2.821,3.531c0.356,0.451,0.281,1.105-0.17,1.462
			C234.898,141.495,234.671,141.568,234.444,141.568L234.444,141.568z"/>
		<path fill="#EDEDED" d="M161.649,160.934c-9.552,0-19.211-0.883-28.792-2.678c-0.602-0.113-0.999-0.692-0.886-1.295
			c0.113-0.602,0.694-0.997,1.295-0.886c34.016,6.375,69.074,1.085,96.188-14.513c0.528-0.307,1.207-0.123,1.515,0.408
			c0.305,0.531,0.122,1.209-0.409,1.515C210.644,154.943,186.522,160.934,161.649,160.934L161.649,160.934z"/>
		<path fill="#EDEDED" d="M230.007,143.559c-0.115,0-0.232-0.02-0.348-0.061c-3.79-1.351-7.666-2.522-11.771-3.762
			c-10.926-3.301-22.224-6.714-31.377-13.636c-0.456-0.345-0.547-0.994-0.202-1.45c0.346-0.456,0.995-0.547,1.45-0.201
			c8.858,6.698,19.977,10.057,30.728,13.305c3.947,1.193,8.029,2.426,11.867,3.794c0.538,0.192,0.819,0.784,0.628,1.323
			C230.831,143.295,230.433,143.559,230.007,143.559L230.007,143.559z"/>
		<path fill="#EDEDED" d="M42.63,175.097c-0.465,0-0.887-0.317-1.001-0.79c-0.133-0.554,0.207-1.11,0.761-1.243
			c11.015-2.653,23.5-5.661,33.52-12.534c0.47-0.322,1.112-0.202,1.433,0.267c0.322,0.469,0.202,1.111-0.267,1.433
			c-10.333,7.087-23.014,10.142-34.203,12.837C42.792,175.087,42.71,175.097,42.63,175.097L42.63,175.097z"/>
		<path fill="#EDEDED" d="M76.492,162.396c-0.243,0-0.486-0.086-0.681-0.262c-2.389-2.161-5.062-4.179-7.647-6.131
			c-4.52-3.412-9.194-6.941-12.716-11.469c-0.344-0.443-0.265-1.081,0.178-1.425c0.441-0.344,1.081-0.265,1.425,0.178
			c3.357,4.316,7.922,7.762,12.336,11.095c2.621,1.978,5.331,4.024,7.786,6.245c0.416,0.376,0.448,1.019,0.072,1.435
			C77.045,162.283,76.77,162.396,76.492,162.396L76.492,162.396z"/>
		<path fill="#EDEDED" d="M77.38,163.16h-0.887c-0.983,0-1.78-0.797-1.78-1.78s0.797-1.78,1.78-1.78h0.887
			c0.983,0,1.78,0.797,1.78,1.78S78.363,163.16,77.38,163.16L77.38,163.16z"/>
		<path fill="#EDEDED" d="M77.381,162.37c-0.305,0-0.605-0.14-0.799-0.405c-0.323-0.44-0.228-1.06,0.213-1.384
			c0.817-0.6,1.65-1.191,2.485-1.785c4.035-2.867,8.208-5.832,10.894-9.992c0.296-0.459,0.91-0.59,1.369-0.294
			c0.459,0.296,0.591,0.909,0.294,1.369c-2.892,4.479-7.223,7.556-11.41,10.532c-0.828,0.587-1.652,1.173-2.461,1.767
			C77.789,162.308,77.584,162.37,77.381,162.37L77.381,162.37z"/>
		<path fill="#EDEDED" d="M147.259,206.156c-0.188,0-0.378-0.049-0.551-0.153c-5.091-3.055-10.478-5.972-15.688-8.792
			c-8.618-4.667-17.529-9.492-25.641-15.21c-0.484-0.341-0.6-1.011-0.259-1.495c0.341-0.485,1.011-0.601,1.496-0.259
			c8.008,5.645,16.862,10.439,25.425,15.075c5.23,2.832,10.639,5.761,15.771,8.841c0.508,0.305,0.673,0.964,0.368,1.473
			C147.979,205.971,147.624,206.156,147.259,206.156L147.259,206.156z"/>
		<path fill="#EDEDED" d="M148.308,207.094c-0.269,0.001-0.523-0.005-0.779-0.005c-0.078,0-0.156,0-0.234,0.002
			c-1.078,0.022-2.022-0.864-2.042-1.973c-0.019-1.109,0.864-2.023,1.973-2.043c0.236-0.003,0.473-0.002,0.711,0.001
			c0.533,0.003,1.041,0.009,1.442-0.077c1.088-0.232,2.152,0.456,2.385,1.541c0.233,1.084-0.457,2.151-1.541,2.385
			C149.545,207.07,148.899,207.094,148.308,207.094L148.308,207.094z"/>
		<path fill="#EDEDED" d="M149.801,206.026c-0.287,0-0.572-0.114-0.782-0.342c-0.399-0.432-0.373-1.105,0.059-1.504
			c9.687-8.956,49.743-21.312,63.333-24.495c7.354-1.724,15.358-3.264,23.15-4.454c8.521-1.299,22.779-3.474,30.39-1.803
			c0.574,0.127,0.938,0.694,0.812,1.269s-0.696,0.936-1.269,0.812c-7.222-1.589-21.237,0.55-29.611,1.828
			c-7.737,1.182-15.687,2.71-22.985,4.421c-14.594,3.42-53.418,15.705-62.374,23.985
			C150.319,205.933,150.06,206.026,149.801,206.026L149.801,206.026z"/>
		<path fill="#EDEDED" d="M265.722,176.294c-0.779,0-1.502-0.504-1.743-1.288c-0.297-0.963,0.244-1.984,1.207-2.281
			c0.796-0.245,1.586-0.375,2.35-0.502c1.312-0.217,2.444-0.403,3.196-1.095c0.742-0.682,1.896-0.633,2.578,0.109
			s0.633,1.896-0.109,2.578c-1.553,1.427-3.421,1.735-5.069,2.008c-0.675,0.112-1.312,0.217-1.871,0.39
			C266.081,176.268,265.899,176.294,265.722,176.294L265.722,176.294z"/>
		<path fill="#EDEDED" d="M271.966,173.511c-0.252,0-0.505-0.091-0.705-0.275c-3.804-3.51-8.234-6.718-12.519-9.821
			c-7.719-5.59-15.701-11.371-20.955-19.436c-0.313-0.481-0.177-1.125,0.304-1.438c0.48-0.312,1.125-0.177,1.438,0.304
			c5.044,7.743,12.867,13.408,20.433,18.887c4.333,3.138,8.813,6.383,12.709,9.977c0.422,0.389,0.448,1.047,0.059,1.469
			C272.524,173.398,272.245,173.511,271.966,173.511L271.966,173.511z"/>
		<path fill="#EDEDED" d="M104.666,182.094c-0.212,0-0.427-0.069-0.605-0.213c-3.67-2.937-7.727-5.597-11.65-8.169
			c-5.365-3.519-10.914-7.157-15.693-11.624c-0.391-0.366-0.412-0.979-0.046-1.371c0.365-0.392,0.979-0.412,1.371-0.046
			c4.658,4.353,10.135,7.945,15.433,11.418c3.96,2.598,8.056,5.283,11.798,8.277c0.418,0.334,0.486,0.944,0.151,1.362
			C105.232,181.97,104.95,182.094,104.666,182.094L104.666,182.094z"/>
		<path fill="#EDEDED" d="M105.998,183.127h-1.331c-1.106,0-2.003-0.896-2.003-2.003s0.897-2.003,2.003-2.003h1.331
			c1.106,0,2.003,0.896,2.003,2.003S107.104,183.127,105.998,183.127L105.998,183.127z"/>
		<path fill="#EDEDED" d="M105.997,182.223c-0.226,0-0.454-0.069-0.65-0.214c-0.489-0.359-0.593-1.047-0.233-1.536
			c3.56-4.837,8.224-8.793,12.733-12.618c3.963-3.362,8.062-6.837,11.285-10.836c0.382-0.473,1.073-0.545,1.545-0.166
			c0.473,0.381,0.547,1.073,0.166,1.545c-3.354,4.161-7.533,7.705-11.575,11.133c-4.414,3.744-8.978,7.615-12.385,12.245
			C106.667,182.068,106.334,182.223,105.997,182.223L105.997,182.223z"/>
		<path fill="#EDEDED" d="M49.239,192.552c-0.172,0-0.347-0.045-0.505-0.14c-0.467-0.279-0.618-0.884-0.339-1.351
			c2.867-4.786-0.54-8.907-3.833-12.892c-1.013-1.226-1.97-2.384-2.751-3.56c-0.301-0.453-0.178-1.064,0.275-1.365
			c0.453-0.302,1.064-0.177,1.365,0.275c0.724,1.091,1.649,2.21,2.629,3.395c3.38,4.089,7.586,9.178,4.004,15.158
			C49.9,192.382,49.574,192.552,49.239,192.552L49.239,192.552z"/>
		<path fill="#EDEDED" d="M83.019,205.412c-0.185,0-0.372-0.049-0.542-0.151c-10.739-6.452-22.958-10.026-33.493-12.672
			c-0.564-0.142-0.907-0.714-0.765-1.278c0.142-0.563,0.715-0.907,1.278-0.765c10.686,2.683,23.09,6.314,34.065,12.91
			c0.499,0.299,0.66,0.946,0.36,1.444C83.725,205.229,83.376,205.412,83.019,205.412L83.019,205.412z"/>
		<path fill="#EDEDED" d="M83.018,205.936c-0.72,0-1.37-0.496-1.536-1.229c-0.193-0.849,0.339-1.693,1.188-1.886
			c0.454-0.104,0.917-0.152,1.325-0.195l0.452-0.051c0.855-0.105,1.652,0.503,1.762,1.366c0.109,0.864-0.502,1.653-1.366,1.763
			c-0.169,0.021-0.342,0.039-0.517,0.058c-0.353,0.037-0.686,0.072-0.958,0.134C83.251,205.923,83.134,205.936,83.018,205.936
			L83.018,205.936z"/>
		<path fill="#EDEDED" d="M189.72,222.882c-0.14,0-0.281-0.027-0.418-0.085c-4.428-1.875-9.036-3.645-13.492-5.355
			c-8.869-3.405-18.04-6.926-26.521-11.538c-0.52-0.282-0.712-0.934-0.43-1.453c0.283-0.52,0.935-0.713,1.454-0.43
			c8.357,4.544,17.46,8.039,26.265,11.42c4.473,1.717,9.099,3.493,13.56,5.382c0.545,0.23,0.8,0.86,0.569,1.405
			C190.534,222.637,190.137,222.882,189.72,222.882L189.72,222.882z"/>
		<path fill="#EDEDED" d="M189.719,223.673c-0.834,0-1.593-0.563-1.806-1.409c-0.251-0.998,0.354-2.01,1.353-2.261l1.058-0.27
			c0.994-0.259,2.012,0.343,2.269,1.339s-0.343,2.012-1.339,2.269l-1.079,0.275C190.021,223.654,189.868,223.673,189.719,223.673
			L189.719,223.673z"/>
		<path fill="#EDEDED" d="M114.428,226.942c-0.271,0-0.542-0.109-0.741-0.324c-6.262-6.794-14.236-11.833-21.949-16.706
			c-2.527-1.597-5.14-3.248-7.655-4.937c-0.461-0.31-0.584-0.936-0.274-1.397c0.31-0.461,0.936-0.583,1.397-0.274
			c2.492,1.674,5.092,3.316,7.607,4.906c7.823,4.943,15.912,10.055,22.354,17.043c0.377,0.409,0.351,1.046-0.058,1.423
			C114.916,226.854,114.671,226.942,114.428,226.942L114.428,226.942z"/>
		<path fill="#EDEDED" d="M115.758,227.939h-1.331c-1.106,0-2.003-0.897-2.003-2.004s0.897-2.004,2.003-2.004h1.331
			c1.106,0,2.003,0.897,2.003,2.004S116.865,227.939,115.758,227.939L115.758,227.939z"/>
		<path fill="#EDEDED" d="M84.644,205.164c-0.19,0-0.383-0.053-0.555-0.164c-0.475-0.307-0.612-0.94-0.305-1.416
			c3.338-5.173,7.653-9.657,11.826-13.994c2.805-2.916,5.706-5.932,8.258-9.107c0.354-0.44,1-0.509,1.44-0.157
			c0.441,0.354,0.511,0.999,0.157,1.44c-2.609,3.247-5.542,6.296-8.378,9.244c-4.105,4.267-8.35,8.68-11.581,13.686
			C85.31,204.999,84.98,205.164,84.644,205.164L84.644,205.164z"/>
		<path fill="#EDEDED" d="M71.966,219.773c-0.325,0-0.646-0.153-0.847-0.439c-5.145-7.309-17.794-15.354-27.069-17.217
			c-0.32-0.064-1.117-0.088-1.887-0.11c-1.46-0.042-3.115-0.091-4.181-0.413c-2.121-0.643-3.116-1.653-2.958-3.004
			c0.46-3.948,13.6-8.021,14.151-8.055c0.572-0.047,1.062,0.397,1.097,0.968c0.034,0.547-0.364,1.021-0.9,1.091
			c-2.232,0.459-12.362,4.562-12.293,6.243l0,0c0.001,0,0.178,0.375,1.503,0.776c0.802,0.242,2.376,0.288,3.642,0.325
			c0.973,0.028,1.741,0.051,2.233,0.149c9.707,1.95,22.956,10.387,28.354,18.055c0.329,0.468,0.217,1.112-0.25,1.441
			C72.38,219.712,72.172,219.773,71.966,219.773L71.966,219.773z"/>
		<path fill="#EDEDED" d="M78.157,264.771c-0.077,0-0.155-0.009-0.232-0.026c-3.513-0.827-6.654-1.764-9.692-2.669
			c-4.81-1.434-9.353-2.787-14.605-3.46c-3.975-0.511-15.726-0.216-20.998,0.237c-1.583,0.14-3.082-0.477-4.006-1.639
			c-0.892-1.122-1.137-2.587-0.672-4.019c2.209-6.815,12.119-9.741,19.354-11.877c0.717-0.211,1.4-0.413,2.039-0.608l1.337-0.406
			c7.531-2.28,17.846-5.403,20.809-11.813c1.253-2.712,1.105-5.77-0.454-9.349c-0.223-0.512,0.011-1.107,0.523-1.33
			c0.512-0.224,1.108,0.012,1.331,0.523c1.777,4.08,1.924,7.782,0.435,11.003c-3.344,7.234-14.161,10.51-22.058,12.901l-1.333,0.404
			c-0.645,0.197-1.334,0.4-2.058,0.614c-6.42,1.896-16.123,4.76-18.004,10.561c-0.255,0.788-0.137,1.547,0.332,2.138
			c0.509,0.64,1.324,0.959,2.25,0.883c4.876-0.421,16.995-0.796,21.428-0.229c5.415,0.694,10.035,2.071,14.926,3.528
			c3.01,0.897,6.122,1.825,9.577,2.638c0.543,0.128,0.88,0.673,0.752,1.216C79.031,264.457,78.616,264.771,78.157,264.771
			L78.157,264.771z"/>
		<path fill="#EDEDED" d="M78.155,264.773c-0.184,0-0.37-0.051-0.538-0.155c-0.474-0.298-0.617-0.923-0.319-1.397
			c6.74-10.738,16.35-19.478,25.642-27.93c3.6-3.273,7.322-6.659,10.774-10.075c0.399-0.396,1.04-0.391,1.433,0.007
			c0.394,0.398,0.39,1.039-0.007,1.433c-3.483,3.447-7.221,6.847-10.836,10.135c-9.191,8.36-18.696,17.005-25.29,27.509
			C78.822,264.604,78.492,264.773,78.155,264.773L78.155,264.773z"/>
		<path fill="#EDEDED" d="M71.965,219.732c-0.235,0-0.472-0.083-0.662-0.252c-0.41-0.366-0.445-0.994-0.08-1.404
			c4.325-4.847,8.133-9.261,10.931-14.207c0.27-0.478,0.876-0.648,1.354-0.376c0.478,0.271,0.646,0.877,0.376,1.354
			c-2.895,5.118-6.774,9.618-11.178,14.553C72.511,219.62,72.238,219.732,71.965,219.732L71.965,219.732z"/>
		<path fill="#EDEDED" d="M148.812,279.556c-0.422,0-0.82-0.259-0.978-0.678c-7.353-19.617-18.704-37.673-32.826-52.215
			c-0.401-0.414-0.392-1.075,0.022-1.477c0.413-0.4,1.072-0.394,1.476,0.021c14.321,14.747,25.83,33.053,33.283,52.938
			c0.202,0.54-0.071,1.142-0.611,1.344C149.058,279.534,148.935,279.556,148.812,279.556L148.812,279.556z"/>
		<path fill="#EDEDED" d="M148.812,279.518c-0.17,0-0.343-0.043-0.501-0.134c-0.481-0.277-0.647-0.893-0.369-1.374
			c11.355-19.705,23.881-40.331,41.081-56.924c0.4-0.386,1.036-0.376,1.422,0.025c0.387,0.399,0.375,1.036-0.025,1.422
			c-17.011,16.412-29.45,36.901-40.734,56.48C149.498,279.337,149.16,279.518,148.812,279.518L148.812,279.518z"/>
		<path fill="#EDEDED" d="M115.759,226.932c-0.293,0-0.584-0.13-0.781-0.377c-0.341-0.432-0.269-1.058,0.162-1.399
			c9.508-7.541,20.034-13.916,30.214-20.082l1.39-0.842c0.469-0.285,1.082-0.136,1.368,0.336c0.285,0.47,0.135,1.082-0.335,1.367
			l-1.391,0.843c-10.127,6.133-20.599,12.476-30.008,19.938C116.194,226.86,115.976,226.932,115.759,226.932L115.759,226.932z"/>
		<path fill="#EDEDED" d="M110.839,323.595c-0.106,0-0.191-0.019-0.279-0.043c-1.74-0.493-2.314-1.537-2.489-2.325
			c-0.835-3.763,5.971-10.317,10.103-13.89c1.375-1.188,2.82-2.376,4.351-3.635c5.72-4.701,12.204-10.03,14.787-15.638
			c2.075-4.504,2.24-8.054,0.503-10.851c-4.787-7.712-23.206-8.228-36.655-8.604c-5.334-0.148-9.941-0.277-12.935-0.813
			c-2.356-0.421-7.26-1.297-10.548-3.215c-0.454-0.265-0.607-0.847-0.342-1.301c0.266-0.453,0.846-0.606,1.3-0.342
			c2.996,1.747,7.676,2.584,9.925,2.986c2.854,0.51,7.396,0.637,12.653,0.784c14.654,0.41,32.89,0.92,38.217,9.502
			c2.071,3.335,1.939,7.591-0.391,12.648c-2.767,6.004-9.429,11.48-15.307,16.312c-1.521,1.25-2.958,2.431-4.314,3.604
			c-6.104,5.276-9.917,10.114-9.49,12.037c0.035,0.158,0.123,0.557,0.942,0.843c1.229-0.453,6.804-3.578,10.548-5.678
			c3.309-1.854,6.167-3.457,7.361-4.026c0.518-0.247,1.117-0.512,1.755-0.795c2.261-1.001,5.358-2.372,6.428-3.787
			c0.318-0.418,0.914-0.502,1.332-0.186c0.419,0.316,0.502,0.913,0.186,1.332c-1.367,1.808-4.587,3.234-7.175,4.38
			c-0.621,0.274-1.203,0.532-1.707,0.772c-1.138,0.542-4.106,2.207-7.25,3.969C113.169,322.784,111.544,323.595,110.839,323.595
			L110.839,323.595z"/>
		<path fill="#EDEDED" d="M137.721,308.946c-0.102,0-0.205-0.016-0.307-0.049c-0.527-0.169-0.817-0.733-0.648-1.261l0.266-0.828
			c2.763-8.609,5.621-17.513,10.592-24.949c0.307-0.461,0.93-0.586,1.391-0.275c0.46,0.308,0.584,0.93,0.276,1.391
			c-4.815,7.202-7.629,15.969-10.35,24.447l-0.266,0.828C138.539,308.675,138.145,308.946,137.721,308.946L137.721,308.946z"/>
		<path fill="#EDEDED" d="M148.459,284.054c-0.031,0-0.062,0-0.094-0.002c-0.902-0.051-1.593-0.824-1.542-1.727l0.037-0.722
			c0.053-1.11,0.108-2.259,0.35-3.424c0.183-0.886,1.043-1.453,1.936-1.271c0.885,0.184,1.454,1.051,1.271,1.936
			c-0.189,0.914-0.236,1.887-0.285,2.916l-0.038,0.749C150.043,283.381,149.321,284.054,148.459,284.054L148.459,284.054z"/>
		<path fill="#EDEDED" d="M137.72,308.919c-0.444,0-0.845-0.305-0.95-0.755c-0.122-0.525,0.206-1.05,0.73-1.171
			c3.885-0.9,7.752-2.797,11.493-4.631c1.341-0.657,2.672-1.31,3.994-1.914c0.489-0.223,1.069-0.008,1.292,0.482
			c0.224,0.49,0.008,1.069-0.482,1.293c-1.306,0.597-2.621,1.241-3.946,1.891c-3.839,1.883-7.809,3.829-11.912,4.779
			C137.867,308.911,137.793,308.919,137.72,308.919L137.72,308.919z"/>
		<path fill="#EDEDED" d="M153.392,302.425c-0.519,0-0.978-0.372-1.071-0.9c-0.238-1.354-0.44-2.747-0.644-4.153
			c-0.732-5.064-1.489-10.302-4.132-14.359c-0.328-0.505-0.186-1.179,0.318-1.507c0.504-0.33,1.178-0.187,1.507,0.317
			c2.905,4.461,3.697,9.939,4.462,15.237c0.2,1.384,0.398,2.755,0.632,4.088c0.104,0.592-0.291,1.156-0.883,1.261
			C153.518,302.42,153.455,302.425,153.392,302.425L153.392,302.425z"/>
	</g>
</g>
</svg>
