<?xml version="1.0" encoding="utf-8"?>
<!-- Generator: Adobe Illustrator 14.0.0, SVG Export Plug-In . SVG Version: 6.00 Build 43363)  -->
<!DOCTYPE svg PUBLIC "-//W3C//DTD SVG 1.1//EN" "http://www.w3.org/Graphics/SVG/1.1/DTD/svg11.dtd">
<svg version="1.1" id="Layer_1" xmlns="http://www.w3.org/2000/svg" xmlns:xlink="http://www.w3.org/1999/xlink" x="0px" y="0px"
	 width="266.667px" height="310px" viewBox="0 0 266.667 310" enable-background="new 0 0 266.667 310" xml:space="preserve">
<g>
	<g>
		<path fill="#F9F3F4" d="M201.468,63.214c-1.783,0-3.553-0.219-5.287-0.666c-0.568-0.146-0.91-0.725-0.764-1.293
			c0.146-0.568,0.727-0.91,1.293-0.764c8.541,2.201,18.127-1.75,25.649-10.567c1.472-1.722,2.986-4.049,4.453-6.3
			c3.044-4.669,5.449-8.368,7.896-7.795c1.562,0.358,2.479,2.238,2.972,6.096c0.418,3.28-1.039,14.448-2.642,18.381
			c-0.222,0.543-0.844,0.803-1.383,0.583c-0.544-0.221-0.805-0.841-0.584-1.384c1.479-3.628,2.883-14.307,2.499-17.312
			c-0.509-3.996-1.329-4.293-1.338-4.294c-1.028-0.249-4.021,4.398-5.642,6.885c-1.504,2.307-3.06,4.693-4.617,6.52
			C217.412,58.998,209.3,63.214,201.468,63.214L201.468,63.214z"/>
		<path fill="#F9F3F4" d="M236.439,113.228c-0.45,0-0.865-0.291-1.005-0.743c-3.832-12.434-3.296-25.509-2.776-38.155
			c0.193-4.76,0.396-9.682,0.348-14.415c-0.006-0.581,0.461-1.057,1.041-1.062c0.004,0,0.01,0,0.013,0
			c0.575,0,1.046,0.464,1.052,1.041c0.051,4.787-0.152,9.736-0.352,14.522c-0.512,12.468-1.038,25.361,2.687,37.45
			c0.173,0.555-0.14,1.144-0.694,1.315C236.646,113.213,236.542,113.228,236.439,113.228L236.439,113.228z"/>
		<path fill="#F9F3F4" d="M242.615,118.807c-2.503,0-4.884-2.062-7.085-6.141c-0.271-0.502-0.084-1.129,0.419-1.4
			c0.5-0.271,1.129-0.084,1.399,0.418c1.312,2.43,3.334,5.277,5.541,5.04c2.481-0.269,5.243-4.472,7.032-10.71
			c0.129-0.451,0.306-1.706,0.509-3.16c1.114-7.968,2.058-12.153,4.114-12.913c0.768-0.283,1.565-0.5,2.244-0.162
			c0.629,0.315,0.805,0.908,0.934,1.34c0.199,0.668,0.424,1.425,2.621,1.945c5.73,1.357,10.351-4.493,12.064-8.753
			c0.939-2.337,1.178-5.007,1.404-7.59c0.447-5.065,0.912-10.302,7.305-10.854c1.391-0.118,2.635,0.208,3.637,0.471
			c1.197,0.313,1.896,0.473,2.354,0.103c0.443-0.36,1.094-0.292,1.453,0.15c0.359,0.443,0.293,1.094-0.15,1.454
			c-1.291,1.05-2.762,0.664-4.18,0.293c-0.938-0.246-1.906-0.501-2.936-0.411c-4.445,0.384-4.938,3.5-5.422,8.977
			c-0.242,2.733-0.492,5.559-1.547,8.179c-1.982,4.922-7.475,11.647-14.457,9.993c-3.348-0.792-3.855-2.452-4.123-3.354
			c-0.115,0.03-0.271,0.079-0.484,0.157c-1.295,0.617-2.416,8.628-2.784,11.26c-0.231,1.657-0.397,2.854-0.567,3.444
			c-1.002,3.489-3.863,11.661-8.798,12.194C242.946,118.798,242.78,118.807,242.615,118.807L242.615,118.807z"/>
		<path fill="#F9F3F4" d="M216.718,116.771c-0.469,0-0.902-0.299-1.053-0.769c-0.187-0.581,0.135-1.202,0.717-1.388
			c6.133-1.956,12.725-2.71,19.1-3.44l0.832-0.095c0.609-0.069,1.152,0.365,1.223,0.971c0.07,0.606-0.365,1.153-0.971,1.223
			l-0.833,0.095c-6.271,0.718-12.752,1.46-18.679,3.35C216.941,116.754,216.83,116.771,216.718,116.771L216.718,116.771z"/>
		<path fill="#F9F3F4" d="M235.688,142.407c-0.08,0-0.16-0.005-0.241-0.016c-0.355-0.048-0.709-0.073-0.984-0.073
			c-0.006,0-0.012,0-0.019,0c-0.981,0-1.78-0.791-1.791-1.773c-0.01-0.989,0.784-1.799,1.772-1.809
			c0.589-0.015,1.191,0.063,1.5,0.104c0.979,0.133,1.668,1.035,1.535,2.015C237.339,141.754,236.57,142.407,235.688,142.407
			L235.688,142.407z"/>
		<path fill="#F9F3F4" d="M235.687,141.615c-0.335,0-0.663-0.168-0.852-0.475c-0.289-0.47-0.146-1.085,0.326-1.375
			c24.182-14.892,42.821-35.56,52.49-58.197c0.219-0.508,0.809-0.741,1.312-0.526c0.508,0.217,0.744,0.804,0.527,1.312
			c-9.83,23.013-28.755,44.006-53.283,59.113C236.046,141.567,235.865,141.615,235.687,141.615L235.687,141.615z"/>
		<path fill="#F9F3F4" d="M238.658,144.963c-0.218,0-0.438-0.046-0.646-0.142c-1.847-0.848-3.11-2.062-3.757-3.606
			c-0.332-0.79,0.041-1.699,0.832-2.03c0.789-0.332,1.699,0.042,2.029,0.833c0.336,0.804,1.072,1.472,2.188,1.984
			c0.778,0.358,1.12,1.279,0.762,2.057C239.807,144.627,239.244,144.963,238.658,144.963L238.658,144.963z"/>
		<path fill="#F9F3F4" d="M255.298,145.026c-5.782,0-11.4-0.217-16.698-0.496c-0.618-0.033-1.095-0.56-1.062-1.179
			c0.031-0.618,0.569-1.091,1.178-1.061c14.895,0.783,32.328,1.082,48.722-2.636c0.608-0.136,1.205,0.241,1.342,0.845
			c0.138,0.604-0.241,1.205-0.846,1.341C277.141,144.29,265.94,145.026,255.298,145.026L255.298,145.026z"/>
		<path fill="#F9F3F4" d="M277.384,174.794c-0.135,0-0.272-0.017-0.409-0.051c-1.021-0.259-2.099-0.343-3.242-0.433
			c-0.659-0.053-1.319-0.104-1.978-0.188c-0.912-0.116-1.557-0.95-1.44-1.862c0.115-0.91,0.94-1.564,1.862-1.439
			c0.604,0.076,1.21,0.123,1.816,0.172c1.229,0.097,2.504,0.195,3.797,0.523c0.893,0.226,1.433,1.131,1.207,2.021
			C278.806,174.292,278.128,174.794,277.384,174.794L277.384,174.794z"/>
		<path fill="#F9F3F4" d="M277.384,174.915c-0.557,0-1.105-0.261-1.454-0.747c-0.573-0.803-0.388-1.918,0.413-2.492
			c1.714-1.224,3.666-1.392,5.391-1.539c0.365-0.031,0.729-0.062,1.084-0.104c0.992-0.121,1.868,0.586,1.982,1.564
			c0.115,0.979-0.586,1.865-1.564,1.98c-0.393,0.047-0.794,0.081-1.197,0.113c-1.389,0.119-2.701,0.231-3.615,0.889
			C278.106,174.807,277.744,174.915,277.384,174.915L277.384,174.915z"/>
		<path fill="#F9F3F4" d="M287.757,180.688c-0.18,0-0.363-0.047-0.53-0.146c-1.015-0.601-2.161-1.099-3.377-1.626
			c-2.83-1.229-5.757-2.497-7.368-5.262c-0.29-0.498-0.122-1.137,0.376-1.428c0.497-0.291,1.136-0.123,1.427,0.377
			c1.268,2.172,3.76,3.254,6.396,4.396c1.221,0.529,2.482,1.077,3.609,1.745c0.496,0.294,0.66,0.935,0.364,1.43
			C288.462,180.505,288.115,180.688,287.757,180.688L287.757,180.688z"/>
		<path fill="#F9F3F4" d="M190.789,222.579c-0.25,0-0.5-0.089-0.701-0.271c-0.426-0.388-0.459-1.045-0.07-1.474
			c19.438-21.45,45.596-34.122,75.281-47.319c0.529-0.233,1.145,0.006,1.377,0.527c0.234,0.525-0.004,1.145-0.527,1.376
			c-29.468,13.103-55.42,25.667-74.586,46.815C191.354,222.464,191.071,222.579,190.789,222.579L190.789,222.579z"/>
		<path fill="#F9F3F4" d="M286.767,238.146c-33.247,0-65.654-5.23-96.335-15.551c-0.584-0.195-0.899-0.83-0.702-1.414
			c0.195-0.584,0.83-0.9,1.415-0.703c30.448,10.239,62.62,15.434,95.622,15.434c0.085,0,0.167,0,0.252,0h0.001
			c0.616,0,1.116,0.5,1.117,1.115c0,0.617-0.499,1.117-1.116,1.119C286.938,238.146,286.85,238.146,286.767,238.146L286.767,238.146
			z"/>
		<path fill="#F9F3F4" d="M253.869,348.335c-1.83,0-3.793-1.376-6.004-2.928c-2.338-1.642-4.986-3.499-7.847-3.991
			c-1.509-0.259-2.479-0.876-2.886-1.834c-0.764-1.802,0.722-3.981,2.293-6.288c0.699-1.025,1.424-2.087,1.783-2.929
			c1.492-3.486,1.84-6.938,1.24-12.301c-2.07-18.523-11.08-36.696-20.755-53.657c-7.793,21.723-31.716,28.019-52.899,33.595
			c-5.354,1.41-10.412,2.741-15.094,4.275c-0.521,0.168-1.08-0.113-1.25-0.633c-0.171-0.521,0.112-1.08,0.633-1.25
			c4.736-1.554,9.821-2.893,15.207-4.31c21.358-5.623,45.568-11.996,52.207-34.386l0.654-2.215l1.152,2
			c10.189,17.695,19.923,36.77,22.111,56.355c0.643,5.74,0.252,9.469-1.39,13.301c-0.437,1.021-1.18,2.11-1.967,3.268
			c-1.034,1.516-2.449,3.592-2.106,4.396c0.121,0.285,0.631,0.523,1.397,0.656c3.298,0.567,6.142,2.562,8.647,4.321
			c2.139,1.5,4.16,2.909,5.35,2.484c0.812-0.293,1.518-1.508,2.092-3.606c2.991-10.94-1.148-32.143-4.309-40.936
			c-2.91-8.104-7.995-15.979-12.481-22.929c-3.519-5.448-6.558-10.153-7.821-13.872l-0.58-1.701l1.748,0.42
			c16.287,3.909,35.617,2.371,54.428-4.332c0.513-0.185,1.08,0.084,1.266,0.601c0.186,0.515-0.085,1.081-0.602,1.265
			c-18.465,6.582-37.453,8.272-53.709,4.811c1.443,3.234,4.021,7.228,6.937,11.738c4.544,7.037,9.694,15.012,12.683,23.33
			c3.233,9.009,7.457,30.786,4.354,42.127c-0.773,2.838-1.834,4.411-3.33,4.95C254.644,348.272,254.259,348.335,253.869,348.335
			L253.869,348.335z"/>
		<path fill="#F9F3F4" d="M42.562,175.082c-1.656,0-4.41-2.622-4.809-3.073c-1.648-1.866-1.072-3.036-0.583-3.567
			c0.941-1.021,2.36-1.754,3.732-2.463c2.57-1.328,4.103-2.254,3.73-3.91c-1.073-4.762-8.211-9.958-13.487-13.457
			c-1.152-0.763-2.709-1.701-4.513-2.786c-7.297-4.392-17.291-10.406-18.333-15.507c-0.247-1.207-0.014-2.313,0.691-3.289
			c3.225-4.46,11.963,0.877,18.985,5.166c1.992,1.217,3.712,2.268,4.924,2.845c9.439,4.495,14.514,6.598,23.491,7.867
			c0.554,0.078,0.939,0.591,0.861,1.145c-0.078,0.554-0.592,0.941-1.145,0.861c-9.256-1.308-14.445-3.456-24.079-8.043
			c-1.307-0.623-3.069-1.699-5.109-2.945c-5.298-3.235-14.164-8.65-16.288-5.708c-0.369,0.51-0.479,1.049-0.347,1.696
			c0.864,4.229,11.21,10.456,17.392,14.177c1.823,1.097,3.398,2.045,4.587,2.833c6.038,4,13.125,9.287,14.345,14.7
			c0.744,3.3-2.317,4.883-4.776,6.155c-1.217,0.629-2.475,1.279-3.173,2.037c0.023,0.709,2.849,2.922,3.853,3.244
			c0.354-0.043,0.719,0.104,0.942,0.418c0.326,0.455,0.221,1.086-0.234,1.412C43.034,175.023,42.81,175.082,42.562,175.082
			L42.562,175.082z"/>
		<path fill="#F9F3F4" d="M90.369,150.329c-8.342,0-15.688-5.604-17.799-13.456c-6.029,4.057-11.023,6.534-16.052,7.975
			c-0.518,0.147-1.058-0.15-1.206-0.669c-0.148-0.518,0.151-1.058,0.669-1.206c5.142-1.473,10.284-4.1,16.67-8.516l1.245-0.861
			l0.269,1.49c1.422,7.867,8.654,13.587,16.805,13.283c0.551-0.019,0.99,0.401,1.01,0.939c0.019,0.538-0.401,0.99-0.939,1.01
			C90.816,150.325,90.591,150.329,90.369,150.329L90.369,150.329z"/>
		<path fill="#F9F3F4" d="M120.938,158.594c-0.937,0-1.818-0.117-2.648-0.35c-3.856-1.081-7.047-5.728-9.862-9.828
			c-1.741-2.535-3.714-5.409-4.802-5.543c-0.669-0.055-2.872,1.7-4.336,2.878c-2.682,2.159-5.721,4.606-8.279,4.606
			c-0.002,0-0.005,0-0.007,0c-0.561-0.001-1.015-0.457-1.014-1.018c0.001-0.56,0.456-1.014,1.016-1.014c0.001,0,0.003,0,0.006,0
			c1.842,0,4.705-2.305,7.005-4.157c2.428-1.955,4.34-3.505,5.858-3.312c1.996,0.246,3.863,2.966,6.227,6.409
			c2.49,3.626,5.589,8.14,8.736,9.021c1.997,0.559,4.435,0.267,7.458-0.895c0.523-0.199,1.111,0.061,1.312,0.583
			c0.201,0.523-0.061,1.11-0.584,1.312C124.756,158.161,122.743,158.594,120.938,158.594L120.938,158.594z"/>
		<path fill="#F9F3F4" d="M126.661,157.284c-0.05,0-0.101-0.005-0.152-0.013c-0.514-0.082-0.863-0.566-0.78-1.082
			c1.58-9.751-4.048-18.448-9.491-26.858c-2.649-4.094-5.39-8.328-7.196-12.575c-0.204-0.479,0.02-1.033,0.499-1.237
			s1.033,0.019,1.237,0.499c1.743,4.098,4.318,8.076,7.044,12.289c5.637,8.709,11.465,17.716,9.769,28.186
			C127.516,156.955,127.116,157.284,126.661,157.284L126.661,157.284z"/>
		<path fill="#F9F3F4" d="M109.911,117.428c-0.325,0-0.646-0.152-0.848-0.437c-1.85-2.594-5.009-5.905-8.667-9.74
			c-4.007-4.2-8.549-8.96-12.367-13.861l-0.186-0.237c-1.555-1.979-3.18-4.233-2.786-5.925c0.148-0.637,0.552-1.128,1.167-1.423
			c3.987-1.907,9.693-0.804,15.211,0.263c4.11,0.795,8.361,1.615,11.619,1.123c6.565-0.996,11.32-4.719,15.418-12.072
			c0.28-0.502,0.912-0.684,1.416-0.402c0.502,0.28,0.682,0.914,0.402,1.416c-2.757,4.946-7.511,11.688-16.924,13.116
			c-3.615,0.55-8.043-0.308-12.327-1.137c-5.187-1.004-10.551-2.042-13.917-0.429c-0.124,0.238-0.065,1.1,2.357,4.185l0.19,0.243
			c3.754,4.819,8.258,9.539,12.231,13.704c3.713,3.892,6.92,7.253,8.856,9.968c0.334,0.468,0.225,1.118-0.243,1.452
			C110.331,117.365,110.12,117.428,109.911,117.428L109.911,117.428z"/>
		<path fill="#F9F3F4" d="M129.38,76.647c-0.541,0-0.992-0.424-1.019-0.97c-0.067-1.316,0.313-3.152,0.753-5.278
			c0.219-1.057,0.445-2.149,0.617-3.199c0.474-2.894-0.204-6.904-0.801-10.442c-0.87-5.155-1.558-9.227,0.709-10.697
			c2.283-1.484,4.396-0.371,5.938,0.442c0.989,0.521,1.844,0.973,2.457,0.724c0.502-0.204,1.28-1.004,2.146-3.66
			c1.897-5.831,0.677-20.556,0.257-24.93c-0.064-0.696-0.214-1.708-0.384-2.879c-1.063-7.314-1.263-10.753,0.382-11.794
			c0.467-0.295,1.252-0.496,2.336,0.224c4.521,3.005,7.865,9.642,11.098,16.06c3.541,7.029,7.199,14.298,12.029,15.808
			c4.505,1.408,6.848,0.119,11.979-2.702l2.424-1.325l0.378,1.176c3.175,9.912,6.772,21.147,16.329,27.463
			c0.472,0.311,0.601,0.945,0.289,1.416s-0.942,0.601-1.416,0.289c-9.75-6.444-13.713-17.857-16.771-27.365l-0.249,0.137
			c-5.312,2.919-8.238,4.527-13.57,2.862c-5.656-1.768-9.342-9.088-13.246-16.839c-3.111-6.181-6.33-12.571-10.402-15.277
			c-0.062-0.042-0.115-0.072-0.158-0.094c-0.626,1.292,0.223,7.12,0.594,9.667c0.174,1.198,0.324,2.233,0.396,2.979
			c0.55,5.734,1.615,19.722-0.35,25.758c-0.928,2.847-1.953,4.364-3.32,4.92c-1.49,0.606-2.918-0.146-4.178-0.81
			c-1.607-0.846-2.655-1.326-3.875-0.536c-1.141,0.74-0.401,5.122,0.193,8.643c0.624,3.695,1.331,7.883,0.803,11.113
			c-0.179,1.092-0.41,2.206-0.632,3.283c-0.395,1.906-0.768,3.707-0.714,4.761c0.029,0.563-0.405,1.043-0.968,1.072
			C129.415,76.647,129.397,76.647,129.38,76.647L129.38,76.647z"/>
		<path fill="#F9F3F4" d="M160.167,109.471c-0.265,0-0.525-0.1-0.729-0.299l-3.395-3.367c-9.438-9.353-19.198-19.024-27.477-29.542
			c-0.352-0.447-0.274-1.094,0.173-1.446c0.447-0.35,1.093-0.274,1.446,0.173c8.197,10.417,17.912,20.043,27.307,29.352l3.396,3.37
			c0.402,0.401,0.404,1.053,0.004,1.457C160.696,109.37,160.432,109.471,160.167,109.471L160.167,109.471z"/>
		<path fill="#F9F3F4" d="M162.789,110.177c-0.154,0-0.312-0.026-0.465-0.082c-0.324-0.116-0.724-0.142-1.188-0.171
			c-0.373-0.024-0.797-0.051-1.23-0.135c-0.744-0.144-1.23-0.864-1.087-1.608c0.146-0.745,0.872-1.229,1.608-1.087
			c0.263,0.051,0.564,0.07,0.884,0.09c0.588,0.038,1.253,0.08,1.942,0.329c0.713,0.257,1.084,1.044,0.826,1.757
			C163.878,109.829,163.351,110.177,162.789,110.177L162.789,110.177z"/>
		<path fill="#F9F3F4" d="M162.789,109.842c-0.41,0-0.797-0.245-0.961-0.648c-0.216-0.531,0.041-1.136,0.571-1.352l3.224-1.301
			c12.66-5.102,25.75-10.377,36.799-18.654c0.459-0.344,1.109-0.25,1.451,0.208c0.344,0.458,0.252,1.109-0.207,1.453
			c-11.266,8.44-24.482,13.767-37.268,18.918l-3.22,1.3C163.05,109.817,162.919,109.842,162.789,109.842L162.789,109.842z"/>
		<path fill="#F9F3F4" d="M203.218,89.02c-0.455,0-0.881-0.287-1.037-0.743l-0.6-1.752c-2.768-8.062-5.625-16.4-6.229-24.927
			c-0.043-0.604,0.412-1.129,1.017-1.172c0.598-0.027,1.129,0.413,1.172,1.017c0.584,8.242,3.396,16.441,6.115,24.371l0.602,1.755
			c0.195,0.573-0.108,1.197-0.684,1.393C203.457,89.001,203.335,89.02,203.218,89.02L203.218,89.02z"/>
		<path fill="#F9F3F4" d="M203.044,90.763c-0.146,0-0.295-0.016-0.443-0.049c-1.104-0.244-1.799-1.336-1.555-2.439l0.176-0.794
			c0.242-1.104,1.332-1.8,2.439-1.555c1.103,0.244,1.799,1.336,1.555,2.439l-0.176,0.794
			C204.83,90.113,203.983,90.763,203.044,90.763L203.044,90.763z"/>
		<path fill="#F9F3F4" d="M216.539,116.606c-0.33,0-0.65-0.159-0.85-0.452c-4.005-5.978-6.999-12.623-9.895-19.05
			c-1.185-2.624-2.404-5.337-3.67-7.942c-0.246-0.506-0.035-1.117,0.473-1.363s1.117-0.034,1.363,0.472
			c1.275,2.631,2.506,5.357,3.691,7.995c2.861,6.35,5.819,12.916,9.729,18.752c0.313,0.468,0.188,1.102-0.278,1.415
			C216.931,116.55,216.733,116.606,216.539,116.606L216.539,116.606z"/>
		<path fill="#F9F3F4" d="M216.716,117.852c-0.301,0-0.604-0.062-0.896-0.194l-0.154-0.068c-1.104-0.482-1.612-1.77-1.131-2.876
			c0.48-1.106,1.769-1.615,2.875-1.13l0.207,0.091c1.1,0.496,1.59,1.79,1.094,2.89C218.345,117.373,217.55,117.852,216.716,117.852
			L216.716,117.852z"/>
		<path fill="#F9F3F4" d="M203.22,88.939c-0.372,0-0.729-0.205-0.908-0.56c-0.253-0.501-0.051-1.112,0.45-1.365
			c8.618-4.34,15.407-11.724,21.975-18.864c2.784-3.028,5.663-6.159,8.62-8.98c0.405-0.387,1.048-0.373,1.438,0.033
			c0.389,0.406,0.371,1.049-0.035,1.437c-2.906,2.776-5.764,5.882-8.525,8.887c-6.688,7.274-13.605,14.796-22.556,19.304
			C203.529,88.904,203.373,88.939,203.22,88.939L203.22,88.939z"/>
		<path fill="#F9F3F4" d="M109.909,117.489c-0.583,0-1.07-0.458-1.1-1.047c-0.031-0.608,0.438-1.126,1.045-1.157l0.86-0.043
			c16.591-0.838,33.747-1.705,49.043-7.825c0.561-0.226,1.205,0.049,1.433,0.614c0.228,0.565-0.049,1.207-0.614,1.433
			c-15.637,6.257-32.979,7.133-49.75,7.98l-0.86,0.043C109.946,117.489,109.928,117.489,109.909,117.489L109.909,117.489z"/>
		<path fill="#F9F3F4" d="M184.173,126.282c-0.24,0-0.482-0.082-0.682-0.248c-2.578-2.16-5.539-4.092-8.404-5.96
			c-4.688-3.059-9.537-6.221-13.121-10.597c-0.371-0.454-0.305-1.124,0.15-1.496c0.451-0.373,1.121-0.306,1.493,0.149
			c3.375,4.122,8.084,7.194,12.64,10.164c2.916,1.902,5.932,3.869,8.605,6.111c0.449,0.377,0.509,1.047,0.132,1.497
			C184.778,126.153,184.477,126.282,184.173,126.282L184.173,126.282z"/>
		<path fill="#F9F3F4" d="M187.138,126.836c-0.057,0-0.113-0.003-0.17-0.009c-0.559-0.061-1.147-0.055-1.772-0.047
			c-0.351,0.004-0.702,0.007-1.053,0c-0.862-0.018-1.547-0.73-1.529-1.592c0.019-0.861,0.759-1.533,1.593-1.529
			c0.318,0.006,0.637,0.002,0.955,0c0.688-0.009,1.4-0.015,2.145,0.065c0.855,0.093,1.479,0.863,1.384,1.72
			C188.601,126.243,187.923,126.836,187.138,126.836L187.138,126.836z"/>
		<path fill="#F9F3F4" d="M187.137,126.32c-0.382,0-0.748-0.209-0.933-0.572c-0.263-0.515-0.058-1.143,0.459-1.404
			c9.282-4.71,19.729-7.482,29.639-9.775c0.562-0.131,1.123,0.22,1.253,0.782s-0.22,1.124-0.782,1.253
			c-9.777,2.264-20.079,4.995-29.164,9.604C187.457,126.284,187.296,126.32,187.137,126.32L187.137,126.32z"/>
		<path fill="#F9F3F4" d="M129.986,159.091c-0.294,0-0.59-0.093-0.841-0.286c-0.444-0.34-1.035-0.521-1.719-0.736
			c-0.423-0.131-0.861-0.267-1.304-0.452c-0.704-0.3-1.033-1.109-0.736-1.813c0.298-0.704,1.11-1.032,1.813-0.736
			c0.338,0.143,0.692,0.25,1.046,0.36c0.819,0.255,1.748,0.542,2.583,1.185c0.606,0.465,0.721,1.332,0.256,1.938
			C130.812,158.904,130.401,159.091,129.986,159.091L129.986,159.091z"/>
		<path fill="#F9F3F4" d="M129.987,159.578c-0.764,0-1.481-0.473-1.757-1.232c-0.353-0.97,0.148-2.041,1.119-2.395
			c0.829-0.301,1.642-0.396,2.36-0.48c0.333-0.039,0.666-0.076,0.992-0.14c1.016-0.2,1.996,0.46,2.195,1.474
			c0.199,1.012-0.46,1.995-1.473,2.194c-0.422,0.083-0.851,0.135-1.28,0.185c-0.565,0.066-1.099,0.129-1.519,0.281
			C130.414,159.542,130.199,159.578,129.987,159.578L129.987,159.578z"/>
		<path fill="#F9F3F4" d="M133.062,158.152c-0.27,0-0.539-0.11-0.734-0.326c-0.365-0.405-0.333-1.029,0.072-1.395
			c11.594-10.454,25.594-18.04,39.133-25.375c4.014-2.176,8.166-4.425,12.15-6.697c0.475-0.269,1.076-0.105,1.347,0.369
			s0.104,1.077-0.368,1.347c-4.004,2.282-8.164,4.537-12.188,6.717c-13.438,7.28-27.332,14.809-38.75,25.104
			C133.534,158.068,133.298,158.152,133.062,158.152L133.062,158.152z"/>
		<path fill="#F9F3F4" d="M230.005,143.776c-0.662,0-1.215-0.518-1.25-1.187c-0.037-0.691,0.494-1.281,1.186-1.317
			c1.729-0.092,2.863-0.567,3.469-1.453c0.391-0.573,1.172-0.718,1.741-0.327c0.571,0.391,0.718,1.17,0.327,1.741
			c-1.062,1.552-2.88,2.407-5.404,2.541C230.05,143.776,230.028,143.776,230.005,143.776L230.005,143.776z"/>
		<path fill="#F9F3F4" d="M234.444,141.568c-0.308,0-0.61-0.135-0.817-0.395c-0.932-1.176-1.871-2.349-2.812-3.521
			c-5.39-6.719-10.962-13.667-15.021-21.507c-0.266-0.51-0.064-1.139,0.445-1.403c0.51-0.265,1.139-0.065,1.402,0.446
			c3.964,7.656,9.471,14.521,14.796,21.162c0.942,1.176,1.888,2.352,2.819,3.531c0.357,0.451,0.281,1.105-0.17,1.462
			C234.898,141.495,234.671,141.568,234.444,141.568L234.444,141.568z"/>
		<path fill="#F9F3F4" d="M161.649,160.934c-9.552,0-19.211-0.883-28.792-2.678c-0.602-0.113-0.999-0.691-0.886-1.295
			c0.113-0.602,0.694-0.997,1.295-0.886c34.017,6.375,69.073,1.085,96.188-14.513c0.526-0.307,1.207-0.123,1.514,0.408
			c0.306,0.531,0.123,1.209-0.408,1.515C210.644,154.943,186.522,160.934,161.649,160.934L161.649,160.934z"/>
		<path fill="#F9F3F4" d="M230.007,143.559c-0.115,0-0.232-0.02-0.348-0.061c-3.791-1.351-7.666-2.522-11.771-3.762
			c-10.926-3.301-22.225-6.714-31.377-13.636c-0.456-0.345-0.547-0.994-0.202-1.45c0.346-0.456,0.995-0.547,1.45-0.201
			c8.857,6.698,19.977,10.057,30.728,13.305c3.947,1.193,8.029,2.426,11.867,3.794c0.538,0.192,0.819,0.784,0.628,1.323
			C230.832,143.295,230.433,143.559,230.007,143.559L230.007,143.559z"/>
		<path fill="#F9F3F4" d="M42.63,175.098c-0.465,0-0.887-0.317-1.001-0.791c-0.133-0.554,0.207-1.108,0.761-1.242
			c11.015-2.652,23.5-5.662,33.52-12.533c0.47-0.322,1.112-0.202,1.433,0.267c0.322,0.47,0.202,1.111-0.267,1.435
			c-10.333,7.086-23.014,10.142-34.203,12.836C42.792,175.087,42.71,175.098,42.63,175.098L42.63,175.098z"/>
		<path fill="#F9F3F4" d="M76.492,162.396c-0.243,0-0.486-0.086-0.681-0.264c-2.389-2.16-5.062-4.179-7.647-6.131
			c-4.52-3.412-9.194-6.941-12.716-11.469c-0.344-0.443-0.265-1.081,0.178-1.425c0.441-0.344,1.081-0.265,1.425,0.178
			c3.357,4.316,7.922,7.762,12.336,11.095c2.621,1.979,5.331,4.023,7.786,6.245c0.416,0.376,0.448,1.021,0.072,1.437
			C77.045,162.283,76.77,162.396,76.492,162.396L76.492,162.396z"/>
		<path fill="#F9F3F4" d="M77.38,163.16h-0.887c-0.983,0-1.78-0.797-1.78-1.78s0.797-1.78,1.78-1.78h0.887
			c0.983,0,1.78,0.797,1.78,1.78S78.363,163.16,77.38,163.16L77.38,163.16z"/>
		<path fill="#F9F3F4" d="M77.381,162.37c-0.305,0-0.605-0.14-0.799-0.405c-0.323-0.439-0.228-1.061,0.213-1.384
			c0.817-0.601,1.65-1.19,2.485-1.785c4.035-2.866,8.208-5.832,10.894-9.992c0.296-0.459,0.91-0.59,1.369-0.294
			c0.459,0.296,0.591,0.909,0.294,1.369c-2.892,4.479-7.223,7.557-11.41,10.532c-0.828,0.587-1.652,1.173-2.461,1.767
			C77.789,162.309,77.584,162.37,77.381,162.37L77.381,162.37z"/>
		<path fill="#F9F3F4" d="M147.259,206.156c-0.188,0-0.379-0.049-0.551-0.153c-5.092-3.055-10.479-5.972-15.688-8.792
			c-8.618-4.667-17.529-9.492-25.641-15.21c-0.484-0.341-0.6-1.011-0.259-1.495c0.341-0.484,1.011-0.602,1.496-0.259
			c8.008,5.646,16.862,10.438,25.425,15.075c5.23,2.832,10.639,5.761,15.771,8.841c0.508,0.305,0.673,0.964,0.368,1.473
			C147.979,205.971,147.625,206.156,147.259,206.156L147.259,206.156z"/>
		<path fill="#F9F3F4" d="M148.308,207.094c-0.27,0.002-0.523-0.005-0.779-0.005c-0.078,0-0.156,0-0.234,0.002
			c-1.078,0.022-2.021-0.864-2.041-1.973c-0.02-1.109,0.863-2.023,1.974-2.043c0.235-0.003,0.474-0.002,0.711,0.001
			c0.533,0.003,1.041,0.009,1.44-0.077c1.088-0.231,2.152,0.456,2.387,1.541c0.232,1.084-0.457,2.151-1.541,2.385
			C149.544,207.07,148.899,207.094,148.308,207.094L148.308,207.094z"/>
		<path fill="#F9F3F4" d="M149.8,206.025c-0.286,0-0.571-0.113-0.781-0.342c-0.398-0.433-0.373-1.104,0.059-1.504
			c9.688-8.955,49.743-21.312,63.334-24.494c7.354-1.726,15.357-3.266,23.149-4.455c8.521-1.299,22.778-3.475,30.39-1.804
			c0.574,0.128,0.938,0.694,0.812,1.271c-0.126,0.574-0.696,0.936-1.27,0.812c-7.223-1.589-21.236,0.55-29.611,1.828
			c-7.736,1.183-15.688,2.71-22.984,4.421c-14.594,3.42-53.418,15.705-62.374,23.985C150.319,205.934,150.06,206.025,149.8,206.025
			L149.8,206.025z"/>
		<path fill="#F9F3F4" d="M265.722,176.294c-0.779,0-1.502-0.504-1.743-1.288c-0.297-0.963,0.244-1.984,1.207-2.281
			c0.796-0.244,1.586-0.375,2.351-0.502c1.312-0.217,2.443-0.402,3.195-1.095c0.742-0.683,1.896-0.633,2.578,0.108
			c0.682,0.742,0.633,1.896-0.109,2.578c-1.553,1.428-3.421,1.734-5.068,2.009c-0.676,0.112-1.312,0.217-1.87,0.39
			C266.082,176.268,265.899,176.294,265.722,176.294L265.722,176.294z"/>
		<path fill="#F9F3F4" d="M271.966,173.511c-0.252,0-0.506-0.091-0.705-0.274c-3.805-3.51-8.234-6.719-12.52-9.82
			c-7.72-5.59-15.701-11.371-20.955-19.436c-0.312-0.481-0.178-1.125,0.305-1.438c0.479-0.312,1.125-0.177,1.438,0.304
			c5.045,7.743,12.867,13.408,20.434,18.886c4.332,3.139,8.812,6.384,12.709,9.978c0.422,0.39,0.447,1.047,0.06,1.47
			C272.524,173.398,272.246,173.511,271.966,173.511L271.966,173.511z"/>
		<path fill="#F9F3F4" d="M104.666,182.094c-0.212,0-0.427-0.068-0.605-0.213c-3.67-2.938-7.727-5.597-11.65-8.169
			c-5.365-3.519-10.914-7.157-15.693-11.624c-0.391-0.365-0.412-0.979-0.046-1.371c0.365-0.392,0.979-0.412,1.371-0.046
			c4.658,4.353,10.135,7.945,15.433,11.418c3.96,2.599,8.056,5.283,11.798,8.277c0.418,0.334,0.486,0.944,0.151,1.362
			C105.232,181.971,104.95,182.094,104.666,182.094L104.666,182.094z"/>
		<path fill="#F9F3F4" d="M105.998,183.127h-1.331c-1.106,0-2.003-0.896-2.003-2.003s0.897-2.003,2.003-2.003h1.331
			c1.106,0,2.003,0.896,2.003,2.003S107.104,183.127,105.998,183.127L105.998,183.127z"/>
		<path fill="#F9F3F4" d="M105.997,182.223c-0.226,0-0.454-0.067-0.65-0.214c-0.489-0.358-0.593-1.047-0.233-1.536
			c3.56-4.837,8.224-8.793,12.733-12.617c3.963-3.361,8.062-6.838,11.285-10.836c0.382-0.474,1.073-0.545,1.545-0.166
			c0.473,0.381,0.547,1.072,0.166,1.545c-3.354,4.16-7.533,7.705-11.575,11.134c-4.414,3.743-8.978,7.614-12.385,12.243
			C106.667,182.068,106.334,182.223,105.997,182.223L105.997,182.223z"/>
		<path fill="#F9F3F4" d="M49.239,192.552c-0.172,0-0.347-0.045-0.505-0.14c-0.467-0.279-0.618-0.885-0.339-1.352
			c2.867-4.785-0.54-8.906-3.833-12.893c-1.013-1.227-1.97-2.384-2.751-3.561c-0.301-0.453-0.178-1.063,0.275-1.364
			c0.453-0.304,1.064-0.179,1.365,0.274c0.724,1.09,1.649,2.209,2.629,3.396c3.38,4.089,7.586,9.178,4.004,15.157
			C49.9,192.382,49.574,192.552,49.239,192.552L49.239,192.552z"/>
		<path fill="#F9F3F4" d="M83.019,205.412c-0.185,0-0.372-0.049-0.542-0.151c-10.739-6.452-22.958-10.026-33.493-12.672
			c-0.564-0.142-0.907-0.714-0.765-1.278c0.142-0.562,0.715-0.906,1.278-0.765c10.686,2.683,23.09,6.313,34.065,12.91
			c0.499,0.299,0.66,0.946,0.36,1.444C83.725,205.229,83.376,205.412,83.019,205.412L83.019,205.412z"/>
		<path fill="#F9F3F4" d="M83.018,205.936c-0.72,0-1.37-0.496-1.536-1.229c-0.193-0.85,0.339-1.693,1.188-1.887
			c0.454-0.104,0.917-0.151,1.325-0.194l0.452-0.051c0.855-0.104,1.652,0.503,1.762,1.366c0.109,0.863-0.502,1.651-1.366,1.763
			c-0.169,0.021-0.342,0.039-0.517,0.058c-0.353,0.037-0.686,0.072-0.958,0.135C83.251,205.923,83.134,205.936,83.018,205.936
			L83.018,205.936z"/>
		<path fill="#F9F3F4" d="M189.72,222.882c-0.141,0-0.281-0.026-0.418-0.085c-4.428-1.875-9.036-3.645-13.492-5.355
			c-8.869-3.403-18.04-6.926-26.521-11.537c-0.52-0.281-0.711-0.934-0.43-1.452c0.283-0.521,0.936-0.713,1.454-0.431
			c8.356,4.543,17.46,8.039,26.265,11.42c4.473,1.718,9.101,3.492,13.562,5.383c0.545,0.229,0.8,0.859,0.567,1.404
			C190.535,222.637,190.137,222.882,189.72,222.882L189.72,222.882z"/>
		<path fill="#F9F3F4" d="M189.718,223.673c-0.834,0-1.592-0.563-1.805-1.409c-0.252-0.998,0.354-2.01,1.353-2.261l1.058-0.271
			c0.994-0.258,2.012,0.344,2.271,1.34c0.257,0.996-0.345,2.012-1.341,2.269l-1.078,0.275
			C190.021,223.654,189.869,223.673,189.718,223.673L189.718,223.673z"/>
		<path fill="#F9F3F4" d="M114.428,226.941c-0.271,0-0.542-0.108-0.741-0.323c-6.262-6.794-14.236-11.833-21.949-16.706
			c-2.527-1.598-5.14-3.248-7.655-4.938c-0.461-0.311-0.584-0.937-0.274-1.396s0.936-0.583,1.397-0.273
			c2.492,1.674,5.092,3.315,7.607,4.905c7.823,4.942,15.912,10.056,22.354,17.043c0.377,0.409,0.351,1.046-0.058,1.423
			C114.916,226.854,114.671,226.941,114.428,226.941L114.428,226.941z"/>
		<path fill="#F9F3F4" d="M115.758,227.939h-1.331c-1.106,0-2.003-0.897-2.003-2.004c0-1.107,0.897-2.004,2.003-2.004h1.331
			c1.106,0,2.003,0.896,2.003,2.004C117.761,227.042,116.865,227.939,115.758,227.939L115.758,227.939z"/>
		<path fill="#F9F3F4" d="M84.644,205.164c-0.19,0-0.383-0.053-0.555-0.164c-0.475-0.307-0.612-0.939-0.305-1.416
			c3.338-5.173,7.653-9.657,11.826-13.994c2.805-2.916,5.706-5.932,8.258-9.107c0.354-0.438,1-0.508,1.44-0.155
			c0.441,0.354,0.511,0.999,0.157,1.438c-2.609,3.248-5.542,6.297-8.378,9.244c-4.105,4.268-8.35,8.68-11.581,13.686
			C85.31,204.999,84.98,205.164,84.644,205.164L84.644,205.164z"/>
		<path fill="#F9F3F4" d="M71.966,219.773c-0.325,0-0.646-0.153-0.847-0.439c-5.145-7.309-17.794-15.354-27.069-17.217
			c-0.32-0.064-1.117-0.088-1.887-0.11c-1.46-0.042-3.115-0.091-4.181-0.413c-2.121-0.643-3.116-1.652-2.958-3.004
			c0.46-3.947,13.6-8.021,14.151-8.055c0.572-0.047,1.062,0.396,1.097,0.968c0.034,0.547-0.364,1.021-0.9,1.091
			c-2.232,0.459-12.362,4.562-12.293,6.243l0,0c0.001,0,0.178,0.375,1.503,0.776c0.802,0.242,2.376,0.287,3.642,0.324
			c0.973,0.027,1.741,0.052,2.233,0.148c9.707,1.95,22.956,10.389,28.354,18.057c0.329,0.467,0.217,1.11-0.25,1.439
			C72.38,219.712,72.172,219.773,71.966,219.773L71.966,219.773z"/>
		<path fill="#F9F3F4" d="M78.157,264.771c-0.077,0-0.155-0.011-0.232-0.026c-3.513-0.827-6.654-1.765-9.692-2.669
			c-4.81-1.434-9.353-2.787-14.605-3.46c-3.975-0.511-15.726-0.216-20.998,0.237c-1.583,0.14-3.082-0.479-4.006-1.641
			c-0.892-1.122-1.137-2.587-0.672-4.02c2.209-6.814,12.119-9.74,19.354-11.877c0.717-0.211,1.4-0.414,2.039-0.607l1.337-0.404
			c7.531-2.281,17.846-5.404,20.809-11.813c1.253-2.712,1.105-5.771-0.454-9.349c-0.223-0.514,0.011-1.107,0.523-1.33
			c0.512-0.226,1.108,0.012,1.331,0.521c1.777,4.08,1.924,7.782,0.435,11.003c-3.344,7.233-14.161,10.511-22.058,12.899
			l-1.333,0.404c-0.645,0.197-1.334,0.4-2.058,0.614c-6.42,1.896-16.123,4.761-18.004,10.562c-0.255,0.787-0.137,1.547,0.332,2.139
			c0.509,0.641,1.324,0.959,2.25,0.883c4.876-0.421,16.995-0.796,21.428-0.229c5.415,0.695,10.035,2.072,14.926,3.529
			c3.01,0.896,6.122,1.823,9.577,2.637c0.543,0.129,0.88,0.674,0.752,1.217C79.031,264.457,78.616,264.771,78.157,264.771
			L78.157,264.771z"/>
		<path fill="#F9F3F4" d="M78.155,264.773c-0.184,0-0.37-0.051-0.538-0.155c-0.474-0.298-0.617-0.923-0.319-1.397
			c6.74-10.738,16.35-19.478,25.642-27.93c3.6-3.273,7.322-6.659,10.774-10.075c0.399-0.396,1.04-0.391,1.433,0.007
			c0.394,0.398,0.39,1.039-0.007,1.435c-3.483,3.446-7.221,6.847-10.836,10.135c-9.191,8.358-18.696,17.005-25.29,27.509
			C78.822,264.604,78.492,264.773,78.155,264.773L78.155,264.773z"/>
		<path fill="#F9F3F4" d="M71.965,219.732c-0.235,0-0.472-0.084-0.662-0.252c-0.41-0.366-0.445-0.994-0.08-1.404
			c4.325-4.848,8.133-9.262,10.931-14.207c0.27-0.479,0.876-0.648,1.354-0.376c0.478,0.271,0.646,0.877,0.376,1.354
			c-2.895,5.116-6.774,9.616-11.178,14.553C72.511,219.62,72.238,219.732,71.965,219.732L71.965,219.732z"/>
		<path fill="#F9F3F4" d="M148.812,279.557c-0.422,0-0.82-0.26-0.979-0.679c-7.354-19.616-18.705-37.673-32.827-52.215
			c-0.401-0.414-0.392-1.075,0.022-1.478c0.413-0.399,1.072-0.395,1.476,0.021c14.321,14.747,25.831,33.053,33.284,52.938
			c0.203,0.541-0.07,1.143-0.61,1.344C149.058,279.534,148.935,279.557,148.812,279.557L148.812,279.557z"/>
		<path fill="#F9F3F4" d="M148.812,279.518c-0.17,0-0.344-0.043-0.501-0.134c-0.481-0.276-0.647-0.893-0.369-1.374
			c11.354-19.705,23.881-40.33,41.081-56.924c0.4-0.386,1.036-0.376,1.422,0.025c0.387,0.397,0.375,1.035-0.025,1.422
			c-17.01,16.412-29.448,36.9-40.732,56.48C149.498,279.337,149.16,279.518,148.812,279.518L148.812,279.518z"/>
		<path fill="#F9F3F4" d="M115.759,226.932c-0.293,0-0.584-0.13-0.781-0.377c-0.341-0.432-0.269-1.058,0.162-1.397
			c9.508-7.541,20.033-13.916,30.214-20.082l1.39-0.843c0.469-0.284,1.082-0.137,1.368,0.336c0.285,0.471,0.136,1.082-0.335,1.367
			l-1.391,0.842c-10.127,6.135-20.599,12.478-30.008,19.938C116.194,226.859,115.976,226.932,115.759,226.932L115.759,226.932z"/>
		<path fill="#F9F3F4" d="M110.839,323.595c-0.106,0-0.191-0.019-0.279-0.043c-1.74-0.493-2.314-1.537-2.489-2.325
			c-0.835-3.763,5.971-10.315,10.103-13.89c1.375-1.188,2.82-2.376,4.351-3.635c5.72-4.701,12.204-10.03,14.787-15.638
			c2.075-4.504,2.24-8.056,0.503-10.853c-4.787-7.712-23.206-8.229-36.655-8.604c-5.334-0.147-9.941-0.276-12.935-0.812
			c-2.356-0.421-7.26-1.297-10.548-3.215c-0.454-0.266-0.607-0.848-0.342-1.303c0.266-0.451,0.846-0.604,1.3-0.342
			c2.996,1.748,7.676,2.584,9.925,2.986c2.854,0.51,7.396,0.637,12.653,0.784c14.654,0.41,32.89,0.92,38.217,9.502
			c2.071,3.335,1.938,7.591-0.392,12.647c-2.768,6.004-9.43,11.479-15.308,16.312c-1.521,1.25-2.958,2.431-4.314,3.604
			c-6.104,5.274-9.917,10.112-9.49,12.035c0.035,0.158,0.123,0.559,0.942,0.845c1.229-0.453,6.804-3.578,10.548-5.68
			c3.309-1.854,6.167-3.457,7.361-4.024c0.518-0.247,1.117-0.514,1.755-0.795c2.261-1.001,5.358-2.372,6.427-3.787
			c0.317-0.418,0.914-0.502,1.332-0.188c0.418,0.316,0.502,0.913,0.187,1.332c-1.367,1.81-4.587,3.234-7.175,4.38
			c-0.621,0.274-1.203,0.532-1.707,0.772c-1.138,0.542-4.106,2.207-7.25,3.969C113.169,322.784,111.544,323.595,110.839,323.595
			L110.839,323.595z"/>
		<path fill="#F9F3F4" d="M137.721,308.946c-0.103,0-0.205-0.018-0.308-0.049c-0.526-0.171-0.816-0.733-0.647-1.263l0.267-0.828
			c2.762-8.607,5.62-17.513,10.592-24.947c0.308-0.461,0.931-0.586,1.392-0.275c0.46,0.309,0.584,0.93,0.274,1.391
			c-4.813,7.202-7.629,15.969-10.35,24.447l-0.266,0.828C138.539,308.675,138.145,308.946,137.721,308.946L137.721,308.946z"/>
		<path fill="#F9F3F4" d="M148.458,284.055c-0.03,0-0.062,0-0.095-0.003c-0.901-0.051-1.593-0.823-1.54-1.727l0.035-0.722
			c0.055-1.11,0.107-2.261,0.352-3.424c0.183-0.888,1.043-1.453,1.936-1.271c0.885,0.184,1.454,1.051,1.271,1.936
			c-0.189,0.914-0.236,1.887-0.285,2.916l-0.039,0.749C150.042,283.381,149.321,284.055,148.458,284.055L148.458,284.055z"/>
		<path fill="#F9F3F4" d="M137.72,308.919c-0.444,0-0.846-0.305-0.95-0.755c-0.122-0.525,0.206-1.05,0.729-1.171
			c3.885-0.9,7.752-2.798,11.494-4.632c1.34-0.656,2.672-1.311,3.992-1.913c0.489-0.224,1.069-0.009,1.292,0.481
			c0.226,0.489,0.009,1.068-0.481,1.293c-1.305,0.598-2.621,1.24-3.945,1.891c-3.839,1.884-7.809,3.83-11.912,4.778
			C137.867,308.911,137.792,308.919,137.72,308.919L137.72,308.919z"/>
		<path fill="#F9F3F4" d="M153.392,302.425c-0.52,0-0.979-0.372-1.071-0.899c-0.237-1.354-0.44-2.748-0.644-4.152
			c-0.732-5.062-1.489-10.303-4.133-14.357c-0.328-0.507-0.187-1.181,0.317-1.509c0.505-0.33,1.179-0.188,1.509,0.317
			c2.903,4.461,3.695,9.938,4.461,15.236c0.201,1.383,0.397,2.754,0.633,4.088c0.104,0.593-0.291,1.156-0.883,1.262
			C153.518,302.42,153.455,302.425,153.392,302.425L153.392,302.425z"/>
	</g>
</g>
</svg>
